<svg xmlns="http://www.w3.org/2000/svg" xmlns:xlink="http://www.w3.org/1999/xlink" width="1280" zoomAndPan="magnify" viewBox="0 0 960 959.999988" height="1280" preserveAspectRatio="xMidYMid meet" version="1.0"><defs><g/><clipPath id="6fb21b0bd7"><rect x="0" width="833" y="0" height="576"/></clipPath></defs><rect x="-96" width="1152" fill="#ffffff" y="-95.999999" height="1151.999986" fill-opacity="1"/><rect x="-96" width="1152" fill="#ffffff" y="-95.999999" height="1151.999986" fill-opacity="1"/><g transform="matrix(1, 0, 0, 1, 50, 260)"><g clip-path="url(#6fb21b0bd7)"><g fill="#c78406" fill-opacity="1"><g transform="translate(2.565023, 423.378813)"><g><path d="M 170.953125 8.484375 L 3.390625 -404.71875 L 96.796875 -404.71875 L 150.5625 -270 L 180 -186.234375 L 208.875 -267.171875 L 263.21875 -404.71875 L 356.609375 -404.71875 L 189.0625 8.484375 Z M 170.953125 8.484375 "/></g></g></g><g fill="#012143" fill-opacity="1"><g transform="translate(290.1247, 432.837543)"><g><path d="M 9.0625 0 L 179.4375 -419.4375 L 187.921875 -419.4375 L 358.3125 0 L 267.171875 0 L 250.765625 -43.578125 L 116.609375 -43.578125 L 100.75 0 Z M 146.046875 -119.4375 L 220.765625 -119.4375 L 183.96875 -224.71875 Z M 146.046875 -119.4375 "/></g></g></g><g fill="#012143" fill-opacity="1"><g transform="translate(659.756828, 432.837543)"><g><path d="M 126.234375 0 L 45.28125 0 L 45.28125 -404.71875 L 126.234375 -404.71875 Z M 126.234375 0 "/></g></g></g></g></g></svg>