<svg xmlns="http://www.w3.org/2000/svg" xmlns:xlink="http://www.w3.org/1999/xlink" width="1280" zoomAndPan="magnify" viewBox="0 0 960 959.999988" height="1280" preserveAspectRatio="xMidYMid meet" version="1.0"><defs><g/><clipPath id="c17b502e25"><path d="M 480 0 C 214.902344 0 0 214.902344 0 480 C 0 745.097656 214.902344 960 480 960 C 745.097656 960 960 745.097656 960 480 C 960 214.902344 745.097656 0 480 0 Z M 480 0 " clip-rule="nonzero"/></clipPath><clipPath id="4df49c830c"><path d="M 0 0 L 960 0 L 960 960 L 0 960 Z M 0 0 " clip-rule="nonzero"/></clipPath><clipPath id="f22738453b"><path d="M 480 0 C 214.902344 0 0 214.902344 0 480 C 0 745.097656 214.902344 960 480 960 C 745.097656 960 960 745.097656 960 480 C 960 214.902344 745.097656 0 480 0 Z M 480 0 " clip-rule="nonzero"/></clipPath><clipPath id="ca5111c6a5"><rect x="0" width="960" y="0" height="960"/></clipPath><clipPath id="085eb95fe5"><rect x="0" width="833" y="0" height="576"/></clipPath></defs><g clip-path="url(#c17b502e25)"><g transform="matrix(1, 0, 0, 1, 0, -0.000000000000026998)"><g clip-path="url(#ca5111c6a5)"><g clip-path="url(#4df49c830c)"><g clip-path="url(#f22738453b)"><rect x="-211.2" width="1382.4" fill="#ffffff" height="1382.399983" y="-211.199997" fill-opacity="1"/></g></g></g></g></g><g transform="matrix(1, 0, 0, 1, 73, 232)"><g clip-path="url(#085eb95fe5)"><g fill="#c78406" fill-opacity="1"><g transform="translate(2.313839, 423.140071)"><g><path d="M 170.953125 8.484375 L 3.390625 -404.71875 L 96.796875 -404.71875 L 150.5625 -270 L 180 -186.234375 L 208.875 -267.171875 L 263.21875 -404.71875 L 356.609375 -404.71875 L 189.0625 8.484375 Z M 170.953125 8.484375 "/></g></g></g><g fill="#012143" fill-opacity="1"><g transform="translate(289.873488, 432.598799)"><g><path d="M 9.0625 0 L 179.4375 -419.4375 L 187.921875 -419.4375 L 358.3125 0 L 267.171875 0 L 250.765625 -43.578125 L 116.609375 -43.578125 L 100.75 0 Z M 146.046875 -119.4375 L 220.765625 -119.4375 L 183.96875 -224.71875 Z M 146.046875 -119.4375 "/></g></g></g><g fill="#012143" fill-opacity="1"><g transform="translate(659.505615, 432.598799)"><g><path d="M 126.234375 0 L 45.28125 0 L 45.28125 -404.71875 L 126.234375 -404.71875 Z M 126.234375 0 "/></g></g></g></g></g></svg>